<svg xmlns="http://www.w3.org/2000/svg" viewBox="0 0 525.14 306.16"><defs><style>.cls-1{fill:#f5efed;}.cls-2{fill:#fff;stroke:#1d1d1b;}.cls-2,.cls-3{stroke-miterlimit:10;stroke-width:4px;}.cls-3{fill:#1d1d1b;stroke:#fff;}</style></defs><g id="Capa_2" data-name="Capa 2"><g id="Capa_1-2" data-name="Capa 1"><rect class="cls-1" width="525.14" height="306.16"/><rect class="cls-2" x="421.23" y="128.37" width="76.66" height="137.48" rx="11"/><rect class="cls-3" x="426.49" y="137.81" width="66.13" height="118.6" rx="11"/><rect class="cls-2" x="27.25" y="68.33" width="141.2" height="197.52" rx="11"/><rect class="cls-3" x="36.94" y="81.89" width="121.8" height="170.39" rx="11"/><path class="cls-2" d="M298.49,119.59l53,91.83a4.22,4.22,0,0,1-3.66,6.33h-106a4.22,4.22,0,0,1-3.65-6.33l53-91.83A4.22,4.22,0,0,1,298.49,119.59Z"/><rect class="cls-2" x="226.78" y="13.17" width="136.12" height="190.42" rx="11" transform="translate(186.46 403.21) rotate(-90)"/><rect class="cls-3" x="236.12" y="26.24" width="117.42" height="164.26" rx="11" transform="translate(186.46 403.21) rotate(-90)"/></g></g></svg>